<?xml version="1.0" standalone="no"?>
<!DOCTYPE svg PUBLIC "-//W3C//DTD SVG 20010904//EN"
 "http://www.w3.org/TR/2001/REC-SVG-20010904/DTD/svg10.dtd">
<svg version="1.0" xmlns="http://www.w3.org/2000/svg"
 width="64.000000pt" height="64.000000pt" viewBox="0 0 64.000000 64.000000"
 preserveAspectRatio="xMidYMid meet">

<g transform="translate(0.000000,64.000000) scale(0.100000,-0.100000)"
fill="#000000" stroke="none">
<path d="M254 606 c-33 -15 -77 -66 -89 -103 -5 -18 -14 -23 -39 -23 -54 0
-56 -8 -56 -192 l0 -168 -30 0 c-28 0 -30 -2 -30 -38 0 -21 5 -43 12 -50 17
-17 579 -17 596 0 7 7 12 29 12 50 0 36 -2 38 -30 38 l-30 0 0 168 c0 184 -2
192 -56 192 -25 0 -34 5 -39 23 -29 92 -133 141 -221 103z m143 -32 c55 -35
76 -132 40 -184 l-17 -24 0 31 c0 37 -22 63 -53 63 -16 0 -18 3 -9 12 15 15
15 61 0 76 -7 7 -24 12 -38 12 -14 0 -31 -5 -38 -12 -15 -15 -15 -61 0 -76 9
-9 7 -12 -9 -12 -31 0 -53 -26 -53 -63 0 -29 -1 -30 -14 -12 -49 73 -13 179
70 205 35 11 91 4 121 -16z m-57 -50 c11 -12 10 -18 -3 -32 -16 -15 -18 -15
-34 0 -13 14 -14 20 -3 32 7 9 16 16 20 16 4 0 13 -7 20 -16z m48 -96 c14 -14
16 -88 2 -88 -5 0 -10 14 -10 30 0 43 -18 37 -22 -7 -3 -36 -5 -38 -38 -38
-33 0 -35 2 -38 38 -4 44 -22 50 -22 7 0 -16 -4 -30 -10 -30 -14 0 -12 74 2
88 7 7 37 12 68 12 31 0 61 -5 68 -12z m-8 -218 c0 -6 -27 -10 -60 -10 -33 0
-60 4 -60 10 0 6 27 10 60 10 33 0 60 -4 60 -10z m-123 -130 c5 -17 14 -20 63
-20 49 0 58 3 63 20 5 18 14 20 117 20 l111 0 -3 -27 -3 -28 -285 0 -285 0 -3
28 -3 27 111 0 c103 0 112 -2 117 -20z"/>
</g>
</svg>
