<?xml version="1.0" standalone="no"?>
<!DOCTYPE svg PUBLIC "-//W3C//DTD SVG 20010904//EN"
 "http://www.w3.org/TR/2001/REC-SVG-20010904/DTD/svg10.dtd">
<svg version="1.0" xmlns="http://www.w3.org/2000/svg"
 width="64.000000pt" height="64.000000pt" viewBox="0 0 64.000000 64.000000"
 preserveAspectRatio="xMidYMid meet">

<g transform="translate(0.000000,64.000000) scale(0.100000,-0.100000)"
fill="#000000" stroke="none">
<path d="M180 560 l0 -60 -64 0 c-96 0 -96 0 -96 -190 0 -196 -4 -190 122
-190 78 0 89 -2 84 -16 -3 -9 -6 -18 -6 -20 0 -2 -45 -4 -100 -4 -80 0 -100
-3 -100 -14 0 -8 7 -22 16 -30 23 -24 545 -24 568 0 36 36 21 44 -83 44 -96 0
-111 5 -111 36 0 2 40 4 89 4 125 0 121 -6 121 190 0 190 0 190 -96 190 l-64
0 0 60 c0 33 -4 60 -10 60 -6 0 -10 -46 -10 -119 0 -105 2 -120 17 -123 18 -3
-114 -88 -137 -88 -23 0 -155 85 -137 88 15 3 17 18 17 123 0 73 -4 119 -10
119 -6 0 -10 -27 -10 -60z m0 -90 c0 -6 -27 -10 -60 -10 l-60 0 0 -140 0 -140
260 0 260 0 0 140 0 140 -60 0 c-33 0 -60 4 -60 10 0 14 114 12 128 -2 17 -17
17 -299 0 -316 -17 -17 -519 -17 -536 0 -17 17 -17 299 0 316 14 14 128 16
128 2z m0 -50 c0 -16 -7 -20 -36 -20 -24 0 -34 -4 -32 -12 6 -16 188 -127 208
-127 20 0 202 111 208 127 2 8 -8 12 -32 12 -25 0 -36 4 -36 15 0 11 12 15 45
15 l45 0 0 -115 0 -115 -235 0 -235 0 0 120 0 120 50 0 c43 0 50 -3 50 -20z
m210 -320 c10 -19 8 -20 -70 -20 -78 0 -80 1 -70 20 9 17 21 20 70 20 49 0 61
-3 70 -20z m190 -50 c-20 -13 -500 -13 -520 0 -10 6 79 10 260 10 181 0 270
-4 260 -10z"/>
<path d="M492 264 c-11 -12 -10 -17 2 -30 15 -14 17 -14 32 0 14 14 14 18 0
31 -18 18 -18 18 -34 -1z"/>
<path d="M270 580 c-22 -22 -28 -84 -9 -95 7 -5 3 -14 -10 -26 -12 -12 -21
-32 -21 -49 l0 -30 90 0 90 0 0 28 c0 16 -9 37 -20 47 -15 13 -17 22 -10 36
38 70 -54 145 -110 89z m84 -56 c12 -4 13 -11 6 -24 -14 -27 -40 -32 -68 -14
l-25 17 29 13 c35 15 38 16 58 8z"/>
</g>
</svg>
